<svg version="1.1" viewBox="0.0 0.0 128.0 128.0" fill="none" stroke="none" stroke-linecap="square" stroke-miterlimit="10" xmlns:xlink="http://www.w3.org/1999/xlink" xmlns="http://www.w3.org/2000/svg"><clipPath id="p.0"><path d="m0 0l128.0 0l0 128.0l-128.0 0l0 -128.0z" clip-rule="nonzero"/></clipPath><g clip-path="url(#p.0)"><path fill="#000000" fill-opacity="0.0" d="m0 0l128.0 0l0 128.0l-128.0 0z" fill-rule="evenodd"/><path fill="#a4c2f4" d="m0 -0.167979l128.0 0l0 128.0l-128.0 0z" fill-rule="evenodd"/><path fill="#93c47d" d="m-0.5065617 91.28609l1.5170603 -2.4356918l23.748032 -24.514435l44.125984 18.527557l33.85302 -25.769028l25.43045 16.506561l-0.16798401 54.396324l-128.33595 0z" fill-rule="evenodd"/><path fill="#000000" fill-opacity="0.0" d="m17.412634 25.321672l86.3937 -9.007874l9.007874 86.3937l-86.3937 9.007874z" fill-rule="evenodd"/><path stroke="#674ea7" stroke-width="12.0" stroke-linejoin="round" stroke-linecap="butt" d="m17.412634 25.321672l86.3937 -9.007874l9.007874 86.3937l-86.3937 9.007874z" fill-rule="evenodd"/><path fill="#000000" fill-opacity="0.0" d="m0.54556483 19.74193l129.35434 15.779528l-9.196854 75.40158l-129.35434 -15.779526z" fill-rule="evenodd"/><path fill="#ffffff" d="m22.2653 77.06249q-3.846487 -0.46922302 -6.890209 -2.0997849q-3.041831 -1.6460648 -5.1231537 -4.19812q-2.0794315 -2.567566 -2.9884062 -5.8266144q-0.89346504 -3.2571564 -0.44700336 -6.91753q0.45213652 -3.7069016 2.0985327 -6.6227455q1.6637974 -2.9294662 4.2975216 -4.9063454q2.6356163 -1.9923897 5.982024 -2.843441q3.348301 -0.8665581 7.1482563 -0.40301132q3.846487 0.4692192 6.857298 2.1115074q3.0282135 1.6286659 5.107643 4.196232q2.0968323 2.5539474 2.9921913 5.7955933q0.8972473 3.2261353 0.4507866 6.886509q-0.452137 3.7069016 -2.1023178 6.6537704q-1.650177 2.9468613 -4.301304 4.9373627q-2.6337242 1.9768829 -5.9665165 2.8453293q-3.3153877 0.8548355 -7.115343 0.39128876zm1.0828648 -9.265175q1.5820236 0.19298553 2.9684792 -0.20455933q1.3864574 -0.39753723 2.505848 -1.3156204q1.1193924 -0.9180908 1.8169937 -2.2496643q0.7131119 -1.3296852 0.91553307 -2.9892578q0.20431137 -1.675087 -0.17016983 -3.121704q-0.35708046 -1.4602318 -1.2229729 -2.6204948q-0.8658905 -1.1602631 -2.1161385 -1.8794479q-1.250248 -0.71918106 -2.8322716 -0.9121666q-1.5665112 -0.19109726 -2.9684792 0.2045517q-1.3864555 0.39754105 -2.505848 1.3156242q-1.1193905 0.918087 -1.8325024 2.2477684q-0.6957092 1.3160667 -0.9000225 2.9911537q-0.20242119 1.6595764 0.15465927 3.1198082q0.3725891 1.4621277 1.2384815 2.6223907q0.8658924 1.1602631 2.1161404 1.8794479q1.2657585 0.72106934 2.8322697 0.9121704zm37.821198 14.010956q-3.893013 -0.47489166 -7.014286 -2.114914q-3.1038704 -1.6536407 -5.2181053 -4.1939697q-2.0987282 -2.538437 -3.0232124 -5.7993774q-0.92448425 -3.2609406 -0.47234726 -6.967842q0.452137 -3.7069016 2.1488457 -6.6480904q1.7122192 -2.9392967 4.390583 -4.894993q2.6783638 -1.9556923 6.1333427 -2.793499q3.4723778 -0.85142136 7.458454 -0.36517334q2.2644653 0.2762375 4.400673 1.0877533q2.1381073 0.79600906 3.9754562 2.1220016q1.8373489 1.3259888 3.2460785 3.1978455l-6.82267 6.251095q-0.55683136 -0.8549652 -1.3769531 -1.616127q-0.8201294 -0.761158 -1.9515915 -1.2927017q-1.1295776 -0.5470581 -2.6650696 -0.7343674q-1.5820236 -0.19298553 -3.0596504 0.17769241q-1.4757309 0.3551674 -2.6397629 1.2520676q-1.1621361 0.8813896 -1.9486389 2.296566q-0.78650284 1.4151764 -1.0229759 3.3539276q-0.21377182 1.7526398 0.21518326 3.2688599q0.42895508 1.5162277 1.4053078 2.6742249q0.99375534 1.1443787 2.4921646 1.893837q1.5139198 0.7513428 3.4681816 0.98973846q1.3803902 0.16838837 2.687786 -0.09712982q1.3073883 -0.2655182 2.3968887 -0.8094635q1.1068954 -0.5575714 1.953537 -1.3042984l3.8459473 8.087715q-1.3531799 1.1571579 -3.4788284 1.9367523q-2.1082535 0.76597595 -4.599701 1.0602036q-2.4740524 0.28060913 -4.924637 -0.018333435zm16.778503 1.5745316l3.953827 -32.416008l15.184319 1.8522873q3.3811874 0.4124565 5.853302 2.083477q2.4895248 1.6573982 3.6792068 4.1636505q1.2070847 2.49263 0.84008026 5.501583q-0.41240692 3.3811874 -2.2116241 5.743202q-1.7837067 2.3639069 -4.6080704 3.4517899q-2.8088608 1.0897675 -6.1900406 0.6773071l-5.831772 -0.71139526l-1.3166809 10.794998l-9.352547 -1.140892zm16.998985 2.0736542l-6.4654846 -15.648041l10.37661 0.100982666l7.2405853 16.907425l-11.1517105 -1.3603668zm-5.482239 -18.676262l4.265259 0.5203018q1.1477432 0.14000702 1.960701 -0.20156097q0.8284683 -0.33968353 1.312706 -1.0833969q0.4997406 -0.7418213 0.6359482 -1.8585434q0.12296295 -1.008152 -0.19327545 -1.7708054q-0.29883575 -0.77627563 -1.0735703 -1.2643013q-0.75733185 -0.50164795 -1.9981384 -0.6530113l-4.0791397 -0.49760056l-0.8304901 6.808918z" fill-rule="nonzero"/><path fill="#000000" fill-opacity="0.0" d="m104.06483 19.375328l8.062988 75.81102" fill-rule="evenodd"/><path stroke="#674ea7" stroke-width="12.0" stroke-linejoin="round" stroke-linecap="butt" d="m104.06483 19.375328l8.062988 75.81102" fill-rule="evenodd"/><path fill="#8e7cc3" d="m100.30847 104.428635l0 0c-0.7305832 -7.0796814 4.416382 -13.411156 11.496063 -14.141731l0 0c3.3997803 -0.3508377 6.7996902 0.66324615 9.451782 2.8191833c2.6520844 2.1559296 4.3391113 5.277092 4.689949 8.67688l0 0c0.7305832 7.0796814 -4.416382 13.411148 -11.496063 14.141731l0 0c-7.0796814 0.73057556 -13.411148 -4.416382 -14.141731 -11.496063z" fill-rule="evenodd"/><path fill="#8e7cc3" d="m13.396949 113.51555l0 0c-0.7305813 -7.0796814 4.416381 -13.411156 11.496064 -14.141731l0 0c3.3997822 -0.3508377 6.7996883 0.66324615 9.451778 2.8191833c2.6520882 2.1559296 4.339115 5.277092 4.689953 8.67688l0 0c0.7305832 7.0796814 -4.416382 13.411148 -11.496063 14.141731l0 0c-7.0796814 0.73057556 -13.411151 -4.416382 -14.141732 -11.496063z" fill-rule="evenodd"/><path fill="#8e7cc3" d="m91.203255 17.34316l0 0c-0.7305832 -7.0796814 4.416382 -13.411151 11.496063 -14.141732l0 0c3.3997803 -0.3508377 6.7996826 0.66325283 9.451775 2.8191826c2.652092 2.15593 4.339119 5.277097 4.6899567 8.67688l0 0c0.73057556 7.0796824 -4.416382 13.411151 -11.496063 14.141732l0 0c-7.0796814 0.7305813 -13.411156 -4.416382 -14.141731 -11.496063z" fill-rule="evenodd"/><path fill="#8e7cc3" d="m3.9329808 26.603302l0 0c-0.7305813 -7.0796814 4.416382 -13.411151 11.496063 -14.141732l0 0c3.3997831 -0.3508377 6.7996893 0.66325283 9.451779 2.8191824c2.6520882 2.1559296 4.339115 5.2770977 4.689953 8.67688l0 0c0.7305813 7.0796833 -4.416382 13.41115 -11.496063 14.141733l0 0c-7.0796814 0.7305794 -13.41115 -4.416382 -14.141732 -11.496063z" fill-rule="evenodd"/></g></svg>